<svg width="57" height="55" viewBox="0 0 57 55" fill="none" xmlns="http://www.w3.org/2000/svg">
<path d="M14.6941 25.0728L8.0105 21.1984L28.5001 33.0903L14.6941 25.0728Z" fill="#FFE26E"/>
<path d="M28.5 33.0903L48.9896 21.1984L42.306 25.0728L28.5 33.0903Z" fill="#FFE26E"/>
<path d="M0 16.5454L5.02977 19.4668C5.66121 18.7217 6.55662 18.2409 7.53422 18.1209L28.5 15.5838L7.53422 18.1218C6.55662 18.2418 5.66121 18.723 5.02977 19.4681L8.01041 21.1984L14.694 25.0728L28.5 33.0907L42.306 25.0728L48.9896 21.1984L57 16.5454L28.5 0L0 16.5454Z" fill="#96C9EF"/>
<path d="M6.05937 53.0774L4.10809 42.5022L0.205078 55L6.05937 53.0774Z" fill="#55A2FF"/>
<path d="M8.0105 21.1984V32.8885C8.0105 36.0516 10.6937 38.8874 14.9476 40.8199C19.2246 42.6358 23.8439 43.5369 28.5001 43.4637V33.0903L8.0105 21.1984Z" fill="#D0E6F8"/>
<path d="M28.5 33.0903V43.4637C33.1562 43.5369 37.7755 42.6358 42.0525 40.8199C46.3064 38.8874 48.9896 36.0516 48.9896 32.8885V21.1984L28.5 33.0903Z" fill="#DBECFA"/>
<path d="M4.1077 38.6569C3.56889 38.6569 3.13184 38.2263 3.13184 37.6954V21.9384C3.13488 19.5115 4.97136 17.4658 7.41623 17.1672L28.3807 14.6292C28.916 14.5645 29.4031 14.9394 29.4688 15.4669C29.5344 15.994 29.1539 16.4739 28.619 16.5386L7.65411 19.0765C6.1864 19.2539 5.08356 20.482 5.08312 21.9384V37.6954C5.08312 38.2263 4.64651 38.6569 4.1077 38.6569Z" fill="#57A4FF"/>
<path d="M8.01066 40.5794C8.01066 42.7035 6.26333 44.4251 4.10809 44.4251C1.95241 44.4251 0.205078 42.7035 0.205078 40.5794C0.205078 38.4558 1.95241 36.7341 4.10809 36.7341C6.26333 36.7341 8.01066 38.4558 8.01066 40.5794Z" fill="#398DF3"/>
</svg>
